<svg xmlns="http://www.w3.org/2000/svg" xmlns:xlink="http://www.w3.org/1999/xlink" width="400" height="400" viewBox="0 0 400 400">
<rect data-name="background" width="100%" height="100%" fill="#e773b4"/><g data-name="business_name" fill="#ffffff" data="id:102" transform="translate(24.47178074496202,100.62735420287461) scale(3.0112922968825875)"><path d="M2.5,48l0-28l15.64,0l4.12,4.12l0,7.14l-1.78,1.78l2.68,2.7l0,8.14l-4.12,4.12l-16.54,0z M3.04,47.46l15.76,0l3.82-3.8l0-7.7l-2.88-2.92l0,0l2-2l0-6.7l-3.82-3.8l-14.88,0l0,26.92z M7.62,42.88l0-6.88l8.34,0l2.08,2.08l0,3.26l-1.54,1.54l-8.88,0z M7.62,31.42l0-6.3l8,0l1.54,1.54l0,2.46l-2.32,2.3l-7.22,0z M8.16,42.34l8.12,0l1.22-1.22l0-2.82l-1.76-1.76l-7.58,0l0,5.8z M8.16,30.88l6.46,0l2-1.98l0-2.02l-1.22-1.22l-7.24,0l0,5.22z M26.36,48l0-5.66l5.4,0l0-18.68l-5.4,0l0-5.66l11.04,0l0,24.34l5.4,0l0,5.66l-16.44,0z M26.9,47.46l15.36,0l0-4.58l-5.4,0l0-24.34l-9.96,0l0,4.58l5.4,0l0,19.76l-5.4,0l0,4.58z M62.44,26.4l4.12,4.12l0,5.7l-4.12,4.12l-10.88,0l0,0.78l1.22,1.22l13.5,0l0,5.66l-16.26,0l-4.12-4.12l0-13.36l4.12-4.12l12.42,0z M59.92,31.52l1.54,1.54l0,1.22l-1.16,1.16l-9.28,0l0-2.38l1.54-1.54l7.36,0z M62.22,26.94l-11.98,0l-3.8,3.8l0,12.94l3.8,3.8l15.48,0l0-4.58l-13.16,0l-1.54-1.54l0-1.54l11.2,0l3.8-3.82l0-5.26z M59.68,32.06l-6.9,0l-1.22,1.22l0,1.6l8.52,0l0.84-0.84l0-0.76z M70.96,48l0-17.48l4.12-4.12l10.96,0l4.12,4.12l0,17.48l-5.64,0l0-14.72l-1.22-1.22l-5.48,0l-1.22,1.22l0,14.72l-5.64,0z M71.5,47.46l4.56,0l0-14.4l1.54-1.54l5.92,0l1.54,1.54l0,14.4l4.56,0l0-16.72l-3.8-3.8l-10.52,0l-3.8,3.8l0,16.72z M109.94,48l-11.24,0l-4.14-4.12l0-13.36l4.14-4.12l9.32,0l0.4,0.38l0-8.78l5.66,0l0,25.88z M107.42,42.88l-6.2,0l-1.54-1.54l0-8.3l1.54-1.52l5.82,0l1.92,1.92l0,7.9z M107.2,42.34l1.22-1.22l0-7.46l-1.6-1.62l-5.38,0l-1.22,1.24l0,7.84l1.22,1.22l5.76,0z M109.72,47.46l3.82-3.8l0-25.12l-4.58,0l0,9.54l-1.16-1.14l-8.88,0l-3.82,3.8l0,12.92l3.82,3.8l10.8,0z"/></g></svg>